<?xml version="1.0" encoding="utf-8"?>
<!-- Generator: Adobe Illustrator 22.0.1, SVG Export Plug-In . SVG Version: 6.00 Build 0)  -->
<svg version="1.1" id="Layer_1" xmlns="http://www.w3.org/2000/svg" xmlns:xlink="http://www.w3.org/1999/xlink" x="0px" y="0px"
	 viewBox="0 0 1200 1200" style="enable-background:new 0 0 1200 1200;" xml:space="preserve">
<style type="text/css">
	.st0{fill:#E7C07F;}
	.st1{fill:#E6CEA2;}
	.st2{opacity:0.1;clip-path:url(#SVGID_2_);}
	.st3{fill:#8F6922;}
	.st4{fill:#9D7F49;}
	.st5{fill:none;stroke:#321705;stroke-width:4;stroke-miterlimit:10;}
	.st6{opacity:0.1;clip-path:url(#SVGID_4_);}
	.st7{fill:#F91605;}
	.st8{opacity:0.2;}
	.st9{clip-path:url(#SVGID_6_);}
	.st10{fill:#FFFFFF;}
	.st11{fill:#F9E14D;}
	.st12{opacity:0.1;}
	.st13{clip-path:url(#SVGID_10_);}
	.st14{fill:#8ED845;}
	.st15{fill:none;stroke:#AFD532;stroke-width:7;stroke-miterlimit:10;}
	.st16{fill:none;stroke:#E3F14A;stroke-width:5;stroke-miterlimit:10;}
	.st17{clip-path:url(#SVGID_16_);}
	.st18{fill:#78154B;}
	.st19{fill:#D4B5CC;}
	.st20{fill:#A55886;}
	.st21{fill:#D9CBD4;}
	.st22{fill:#E7D4E1;}
	.st23{fill:#E8E0E7;}
	.st24{fill:#EAE1E8;}
	.st25{fill:#F1E8ED;}
	.st26{clip-path:url(#SVGID_20_);}
	.st27{fill:#E3BA7A;}
	.st28{opacity:0.1;clip-path:url(#SVGID_22_);}
	.st29{fill:#3B3A42;}
	.st30{fill:#F1F5F4;}
	.st31{fill:#F3B2B0;}
</style>
<g id="LOWBUN">
	<path class="st0" d="M222.5,707.5c0,0-69,121,45,185s419,52,419,52s344-2,252-237H222.5z"/>
	<ellipse class="st1" cx="580.5" cy="707.5" rx="358" ry="115"/>
	<g>
		<defs>
			<path id="SVGID_1_" d="M580.5,592.5c0,0,247,50,286,180c0,0,31,254-599,120l5,87l744-2l-8-456l-426,15L580.5,592.5z"/>
		</defs>
		<clipPath id="SVGID_2_">
			<use xlink:href="#SVGID_1_"  style="overflow:visible;"/>
		</clipPath>
		<g class="st2">
			<path d="M222.5,707.5c0,0-69,121,45,185s419,52,419,52s344-2,252-237H222.5z"/>
			<ellipse cx="580.5" cy="707.5" rx="358" ry="115"/>
		</g>
	</g>
</g>
<g id="KOFTE">
	<path class="st3" d="M219,553c0,0-65,65-5,163c0,0,34,65,207,98s360-8,360-8s112-41,156-76c0,0,39-55-2-177H219z"/>
	<ellipse class="st4" cx="577" cy="553" rx="358" ry="115"/>
	<line class="st5" x1="263" y1="515" x2="379" y2="633"/>
	<line class="st5" x1="361" y1="484" x2="528" y2="651"/>
	<line class="st5" x1="468" y1="463" x2="649.5" y2="644.5"/>
	<line class="st5" x1="588" y1="457" x2="763" y2="632"/>
	<g>
		<defs>
			<path id="SVGID_3_" d="M476,378c0,0,322.1,118.2,388.6,244.6c0,0,29.6,236.6-501,177L389,860l635-2l-18-534L476,378z"/>
		</defs>
		<clipPath id="SVGID_4_">
			<use xlink:href="#SVGID_3_"  style="overflow:visible;"/>
		</clipPath>
		<g class="st6">
			<path d="M219,553c0,0-65,65-5,163c0,0,34,65,207,98s360-8,360-8s112-41,156-76c0,0,39-55-2-177H219z"/>
			<ellipse cx="577" cy="553" rx="358" ry="115"/>
		</g>
	</g>
	<line class="st5" x1="859" y1="494" x2="916.5" y2="551.5"/>
	<line class="st5" x1="717" y1="466" x2="854" y2="603"/>
</g>
<g id="SOS">
	<ellipse class="st7" cx="578" cy="553" rx="358" ry="115"/>
	<path class="st7" d="M220,553c0,0-63,81-25,138c13,35,80,16,98,20s62,2,64,61s44,14,44-24s91-78,111-40s-1,77,22,91s42,27,44-16
		s46-107,76-93s53,68,110,18s69,2,72,19s25,82,47,14s40-91,54-69s41,19,33-16s-18-87-34-103H220z"/>
	<g class="st8">
		<defs>
			<path id="SVGID_5_" class="st8" d="M674,411c0,0,160,76,148,180c0,0-129,136-546,164l-16,156l816-6l-8-512L674,411z"/>
		</defs>
		<clipPath id="SVGID_6_">
			<use xlink:href="#SVGID_5_"  style="overflow:visible;"/>
		</clipPath>
		<g id="SOS_1_" class="st9">
			<ellipse cx="578" cy="553" rx="358" ry="115"/>
			<path d="M220,553c0,0-63,81-25,138c13,35,80,16,98,20s62,2,64,61s44,14,44-24s91-78,111-40s-1,77,22,91s42,27,44-16s46-107,76-93
				s53,68,110,18s69,2,72,19s25,82,47,14s40-91,54-69s41,19,33-16s-18-87-34-103H220z"/>
		</g>
	</g>
	<path class="st10" d="M230,584c-11,7-53,64,2,105c0,0,48,14,61-3C209,638,241,577,230,584z"/>
	<path class="st10" d="M256.3,559.8c0.4-14.1,31.8-88.5,104.4-70.5c0,0,41.9,30.7,32.9,53.3C297.1,505,255.9,573.8,256.3,559.8z"/>
</g>
<g id="PEYNIR">
	<g>
		<g>
			<defs>
				<path id="SVGID_7_" d="M573,377c0,0,252,119,255,208c0,0,15,118-666,186l856.6,157.6L1095,587l-60-260L573,377z"/>
			</defs>
			<clipPath id="SVGID_8_">
				<use xlink:href="#SVGID_7_"  style="overflow:visible;"/>
			</clipPath>
		</g>
	</g>
	<g>
		<g>
			<ellipse class="st11" cx="578" cy="551" rx="358" ry="115"/>
		</g>
		<path class="st11" d="M220,551c0,0-46,46-33,93s34,43,56,41s81-5,100,30s69,30,104-1s95-14,97,6s-10,79,42,77s67,3,70-74
			s102-30,101-5s40,67,63,35s60-81,97-62s17,31,36,33s28-55,22-79s-5-67-39-94S220,551,220,551z"/>
		<path class="st10" d="M231,564c0,0-53,64,2,105c0,0,26-17,61-3C294,666,229,637,231,564z"/>
		<g class="st12">
			<defs>
				<path id="SVGID_9_" class="st12" d="M573,377c0,0,252,119,255,208c0,0,15,118-666,186l856.6,157.6L1095,587l-60-260L573,377z"/>
			</defs>
			<clipPath id="SVGID_10_">
				<use xlink:href="#SVGID_9_"  style="overflow:visible;"/>
			</clipPath>
			<g id="PEYNIR_11_" class="st13">
				<g>
					<g>
						<ellipse cx="578" cy="551" rx="358" ry="115"/>
					</g>
					<path d="M220,551c0,0-46,46-33,93s34,43,56,41s81-5,100,30s69,30,104-1s95-14,97,6s-10,79,42,77s67,3,70-74s102-30,101-5
						s40,67,63,35s60-81,97-62s17,31,36,33s28-55,22-79s-5-67-39-94S220,551,220,551z"/>
				</g>
			</g>
		</g>
		<path class="st10" d="M357.5,683.1c0,0-8.4,38.7,23.8,44c0,0,7.3-12.9,25.2-14.6C406.5,712.5,372.7,714.5,357.5,683.1z"/>
	</g>
	<g>
		<g>
			<defs>
				<path id="SVGID_11_" d="M573,377c0,0,252,119,255,208c0,0,15,118-666,186l856.6,157.6L1095,587l-60-260L573,377z"/>
			</defs>
			<clipPath id="SVGID_12_">
				<use xlink:href="#SVGID_11_"  style="overflow:visible;"/>
			</clipPath>
		</g>
	</g>
</g>
<g id="MARUL_1_">
	<g>
		<g>
			<defs>
				<path id="SVGID_13_" d="M498,366c0,0,299.2,57.2,342.1,231.1c0,0-32.1,83.9-532.1,98.9l-6,92l747-89l-45-282L498,366z"/>
			</defs>
			<clipPath id="SVGID_14_">
				<use xlink:href="#SVGID_13_"  style="overflow:visible;"/>
			</clipPath>
		</g>
	</g>
	<g>
		<g>
			<ellipse class="st14" cx="575" cy="549" rx="358" ry="115"/>
		</g>
		<path class="st14" d="M217,549c0,0,7,34-7,46s-29,31-11,35s15,16,23,18s23-21,31-14s21,30,34,24s44-17,48-4s36,42,47,35
			s24,1,23,10s26,23,33,7s34-26,36-12s55,12,56,4s15-15,21-3s46,9,47-3s59-24,64-4s28,19,32,1s24-33,40-12s44,20,48,13s16-15,21-6
			s33-4,42-35s21,24,35,28s23-9,22-24s21-30,26-18s29,25,25,9s-14-45,3-36s50,19,40,0s-49-25-55-46s-8-13-8-13H217z"/>
		<g id="Marul_62_">
			<path class="st15" d="M308.4,526.9c-7.4,21.1,9.9,64.9,19.9,29.8c9.9-35.1,31-108.8-14.9-77.2s-70.7,59.7-42.2,75.5
				c28.5,15.8,78.2,63.2,100.5,33.3c22.3-29.8-32.3-91.2,22.3-105.3c54.6-14,68.2,22.8,38.5,36.9c-29.8,14-31-19.3-43.4-8.8
				c-12.4,10.5-17.4,31.6,9.9,47.4c27.3,15.8,67,15.8,52.1-10.5c-14.9-26.3-53.4-45.6,7.4-57.9s72,8.8,54.6,45.6s18.6,121.1,36,57.9
				c17.4-63.2,32.3-117.6,2.5-80.7s-34.5,48.7-21,50.7c13.6,2,8.6,19.5-6.3,10.8c-14.9-8.8-72-124.6,0-73.7S675.7,619.9,644.7,548
				s-70.7-59.7-53.4-28.1c17.4,31.6,38.5,36.9,36,22.8s-72-77.2,23.6-45.6c38.6,12.8,70.1,25.5,90.5,36.9
				c30.1,16.8,36.1,30.5,5,36.8c-52.1,10.5-71.3-2.5-49.3-18.8s44.3,24.1,75.3,29.3c31,5.3,82.7,53.5,61.8-22.4
				c-20.9-75.9-38.2-114.5-42-61.8c-3.7,52.6-1.2,79,11.2,59.7c12.4-19.3-21.1-56.2,36-43.9c57.1,12.3,94.3,14,58.3,43.9
				c-36,29.8-57.1,33.3-43.4,5.3c13.6-28.1,18.6-28.1,22.3-19.3"/>
		</g>
		<g id="Marul_61_">
			<path class="st16" d="M546.5,552.7c3.5-21.1-4.7-64.8-9.4-29.7c-4.6,35.2-14.5,109,7.1,77.1s33.2-60.2,19.7-75.8
				c-13.4-15.6-36.8-62.6-47.3-32.6c-10.5,30,15.3,91-10.4,105.5c-25.7,14.5-32.1-22.3-18.1-36.5s14.6,19.1,20.4,8.4
				c5.8-10.6,8.1-31.7-4.7-47.3c-12.9-15.6-31.5-15.3-24.5,10.9s25.1,45.2-3.4,58c-28.6,12.8-33.8-8.2-25.7-45.2s-8.9-120.9-17-57.6
				s-15,117.8-1.1,80.7c14-37.1,16.2-48.9,9.8-50.8s-4.1-19.5,3-10.8c7,8.7,34,124,0.1,73.7c-33.9-50.3-71.3-118.1-56.6-46.4
				c14.7,71.7,33.3,59.1,25.1,27.7c-8.2-31.5-18.1-36.5-16.9-22.5c1.2,14,33.9,76.6-11,45.8c-18.2-12.5-33-25-42.6-36.2
				c-14.2-16.5-17-30.3-2.4-36.8c24.5-10.9,33.5,1.9,23.2,18.4c-10.3,16.5-20.9-23.7-35.4-28.7c-14.6-5-38.9-52.8-29,22.9
				c9.9,75.7,18.1,114.2,19.8,61.5c1.7-52.7,0.5-79-5.3-59.6c-5.8,19.4,10,56-16.9,44.2c-26.8-11.8-44.3-13.3-27.5-43.4
				c16.9-30.1,26.8-33.8,20.4-5.6c-6.4,28.2-8.7,28.2-10.5,19.5"/>
		</g>
		<g id="Marul_60_">
			<path class="st16" d="M858,562.1c3.5-21.1-4.7-64.8-9.4-29.7c-4.6,35.2-14.5,109,7.1,77.1s33.2-60.2,19.7-75.8
				c-13.4-15.6-36.8-62.6-47.3-32.6c-10.5,30,15.3,91-10.4,105.5c-25.7,14.5-32.1-22.3-18.1-36.5c14-14.3,14.6,19.1,20.4,8.4
				c5.8-10.6,8.1-31.7-4.7-47.3c-12.9-15.6-31.5-15.3-24.5,10.9s25.1,45.2-3.4,58c-28.6,12.8-33.8-8.2-25.7-45.2
				c8.1-37-8.9-120.9-17-57.6s-15,117.8-1.1,80.7s16.2-48.9,9.8-50.8c-6.4-1.9-4.1-19.5,3-10.8c7,8.7,34,124,0.1,73.7
				c-33.9-50.3-71.3-118.1-56.6-46.4s33.3,59.1,25.1,27.7c-8.2-31.5-18.1-36.5-16.9-22.5c1.2,14,33.9,76.6-11,45.8
				c-18.2-12.5-33-25-42.6-36.2c-14.2-16.5-17-30.3-2.4-36.8c24.5-10.9,33.5,1.9,23.2,18.4s-20.9-23.7-35.4-28.7
				c-14.6-5-38.9-52.8-29,22.9s18.1,114.2,19.8,61.5c1.7-52.7,0.5-79-5.3-59.6c-5.8,19.4,10,56-16.9,44.2
				c-26.8-11.8-44.3-13.3-27.5-43.4s26.8-33.8,20.4-5.6c-6.4,28.2-8.7,28.2-10.5,19.5"/>
		</g>
		<g class="st12">
			<defs>
				<path id="SVGID_15_" class="st12" d="M498,366c0,0,299.2,57.2,342.1,231.1c0,0-32.1,83.9-532.1,98.9l-6,92l747-89l-45-282
					L498,366z"/>
			</defs>
			<clipPath id="SVGID_16_">
				<use xlink:href="#SVGID_15_"  style="overflow:visible;"/>
			</clipPath>
			<g id="MARUL_12_" class="st17">
				<g>
					<g>
						<ellipse cx="575" cy="549" rx="358" ry="115"/>
					</g>
					<path d="M217,549c0,0,7,34-7,46s-29,31-11,35s15,16,23,18s23-21,31-14s21,30,34,24s44-17,48-4s36,42,47,35s24,1,23,10
						s26,23,33,7s34-26,36-12s55,12,56,4s15-15,21-3s46,9,47-3s59-24,64-4s28,19,32,1s24-33,40-12s44,20,48,13s16-15,21-6
						s33-4,42-35s21,24,35,28s23-9,22-24s21-30,26-18s29,25,25,9s-14-45,3-36s50,19,40,0s-49-25-55-46s-8-13-8-13H217z"/>
					<g id="Marul_59_">
						<path d="M308.4,526.9c-7.4,21.1,9.9,64.9,19.9,29.8c9.9-35.1,31-108.8-14.9-77.2s-70.7,59.7-42.2,75.5
							c28.5,15.8,78.2,63.2,100.5,33.3c22.3-29.8-32.3-91.2,22.3-105.3c54.6-14,68.2,22.8,38.5,36.9c-29.8,14-31-19.3-43.4-8.8
							c-12.4,10.5-17.4,31.6,9.9,47.4c27.3,15.8,67,15.8,52.1-10.5c-14.9-26.3-53.4-45.6,7.4-57.9s72,8.8,54.6,45.6
							s18.6,121.1,36,57.9c17.4-63.2,32.3-117.6,2.5-80.7s-34.5,48.7-21,50.7c13.6,2,8.6,19.5-6.3,10.8c-14.9-8.8-72-124.6,0-73.7
							S675.7,619.9,644.7,548s-70.7-59.7-53.4-28.1c17.4,31.6,38.5,36.9,36,22.8s-72-77.2,23.6-45.6c38.6,12.8,70.1,25.5,90.5,36.9
							c30.1,16.8,36.1,30.5,5,36.8c-52.1,10.5-71.3-2.5-49.3-18.8s44.3,24.1,75.3,29.3c31,5.3,82.7,53.5,61.8-22.4
							c-20.9-75.9-38.2-114.5-42-61.8c-3.7,52.6-1.2,79,11.2,59.7c12.4-19.3-21.1-56.2,36-43.9c57.1,12.3,94.3,14,58.3,43.9
							c-36,29.8-57.1,33.3-43.4,5.3c13.6-28.1,18.6-28.1,22.3-19.3"/>
						<path class="st15" d="M308.4,526.9c-7.4,21.1,9.9,64.9,19.9,29.8c9.9-35.1,31-108.8-14.9-77.2s-70.7,59.7-42.2,75.5
							c28.5,15.8,78.2,63.2,100.5,33.3c22.3-29.8-32.3-91.2,22.3-105.3c54.6-14,68.2,22.8,38.5,36.9c-29.8,14-31-19.3-43.4-8.8
							c-12.4,10.5-17.4,31.6,9.9,47.4c27.3,15.8,67,15.8,52.1-10.5c-14.9-26.3-53.4-45.6,7.4-57.9s72,8.8,54.6,45.6
							s18.6,121.1,36,57.9c17.4-63.2,32.3-117.6,2.5-80.7s-34.5,48.7-21,50.7c13.6,2,8.6,19.5-6.3,10.8c-14.9-8.8-72-124.6,0-73.7
							S675.7,619.9,644.7,548s-70.7-59.7-53.4-28.1c17.4,31.6,38.5,36.9,36,22.8s-72-77.2,23.6-45.6c38.6,12.8,70.1,25.5,90.5,36.9
							c30.1,16.8,36.1,30.5,5,36.8c-52.1,10.5-71.3-2.5-49.3-18.8s44.3,24.1,75.3,29.3c31,5.3,82.7,53.5,61.8-22.4
							c-20.9-75.9-38.2-114.5-42-61.8c-3.7,52.6-1.2,79,11.2,59.7c12.4-19.3-21.1-56.2,36-43.9c57.1,12.3,94.3,14,58.3,43.9
							c-36,29.8-57.1,33.3-43.4,5.3c13.6-28.1,18.6-28.1,22.3-19.3"/>
					</g>
					<g id="Marul_58_">
						<path d="M546.5,552.7c3.5-21.1-4.7-64.8-9.4-29.7c-4.6,35.2-14.5,109,7.1,77.1s33.2-60.2,19.7-75.8
							c-13.4-15.6-36.8-62.6-47.3-32.6c-10.5,30,15.3,91-10.4,105.5c-25.7,14.5-32.1-22.3-18.1-36.5s14.6,19.1,20.4,8.4
							c5.8-10.6,8.1-31.7-4.7-47.3c-12.9-15.6-31.5-15.3-24.5,10.9s25.1,45.2-3.4,58c-28.6,12.8-33.8-8.2-25.7-45.2
							s-8.9-120.9-17-57.6s-15,117.8-1.1,80.7c14-37.1,16.2-48.9,9.8-50.8s-4.1-19.5,3-10.8c7,8.7,34,124,0.1,73.7
							c-33.9-50.3-71.3-118.1-56.6-46.4c14.7,71.7,33.3,59.1,25.1,27.7c-8.2-31.5-18.1-36.5-16.9-22.5c1.2,14,33.9,76.6-11,45.8
							c-18.2-12.5-33-25-42.6-36.2c-14.2-16.5-17-30.3-2.4-36.8c24.5-10.9,33.5,1.9,23.2,18.4c-10.3,16.5-20.9-23.7-35.4-28.7
							c-14.6-5-38.9-52.8-29,22.9c9.9,75.7,18.1,114.2,19.8,61.5c1.7-52.7,0.5-79-5.3-59.6c-5.8,19.4,10,56-16.9,44.2
							c-26.8-11.8-44.3-13.3-27.5-43.4c16.9-30.1,26.8-33.8,20.4-5.6c-6.4,28.2-8.7,28.2-10.5,19.5"/>
						<path class="st16" d="M546.5,552.7c3.5-21.1-4.7-64.8-9.4-29.7c-4.6,35.2-14.5,109,7.1,77.1s33.2-60.2,19.7-75.8
							c-13.4-15.6-36.8-62.6-47.3-32.6c-10.5,30,15.3,91-10.4,105.5c-25.7,14.5-32.1-22.3-18.1-36.5s14.6,19.1,20.4,8.4
							c5.8-10.6,8.1-31.7-4.7-47.3c-12.9-15.6-31.5-15.3-24.5,10.9s25.1,45.2-3.4,58c-28.6,12.8-33.8-8.2-25.7-45.2
							s-8.9-120.9-17-57.6s-15,117.8-1.1,80.7c14-37.1,16.2-48.9,9.8-50.8s-4.1-19.5,3-10.8c7,8.7,34,124,0.1,73.7
							c-33.9-50.3-71.3-118.1-56.6-46.4c14.7,71.7,33.3,59.1,25.1,27.7c-8.2-31.5-18.1-36.5-16.9-22.5c1.2,14,33.9,76.6-11,45.8
							c-18.2-12.5-33-25-42.6-36.2c-14.2-16.5-17-30.3-2.4-36.8c24.5-10.9,33.5,1.9,23.2,18.4c-10.3,16.5-20.9-23.7-35.4-28.7
							c-14.6-5-38.9-52.8-29,22.9c9.9,75.7,18.1,114.2,19.8,61.5c1.7-52.7,0.5-79-5.3-59.6c-5.8,19.4,10,56-16.9,44.2
							c-26.8-11.8-44.3-13.3-27.5-43.4c16.9-30.1,26.8-33.8,20.4-5.6c-6.4,28.2-8.7,28.2-10.5,19.5"/>
					</g>
					<g id="Marul_57_">
						<path d="M858,562.1c3.5-21.1-4.7-64.8-9.4-29.7c-4.6,35.2-14.5,109,7.1,77.1s33.2-60.2,19.7-75.8
							c-13.4-15.6-36.8-62.6-47.3-32.6c-10.5,30,15.3,91-10.4,105.5c-25.7,14.5-32.1-22.3-18.1-36.5c14-14.3,14.6,19.1,20.4,8.4
							c5.8-10.6,8.1-31.7-4.7-47.3c-12.9-15.6-31.5-15.3-24.5,10.9s25.1,45.2-3.4,58c-28.6,12.8-33.8-8.2-25.7-45.2
							c8.1-37-8.9-120.9-17-57.6s-15,117.8-1.1,80.7s16.2-48.9,9.8-50.8c-6.4-1.9-4.1-19.5,3-10.8c7,8.7,34,124,0.1,73.7
							c-33.9-50.3-71.3-118.1-56.6-46.4s33.3,59.1,25.1,27.7c-8.2-31.5-18.1-36.5-16.9-22.5c1.2,14,33.9,76.6-11,45.8
							c-18.2-12.5-33-25-42.6-36.2c-14.2-16.5-17-30.3-2.4-36.8c24.5-10.9,33.5,1.9,23.2,18.4s-20.9-23.7-35.4-28.7
							c-14.6-5-38.9-52.8-29,22.9s18.1,114.2,19.8,61.5c1.7-52.7,0.5-79-5.3-59.6c-5.8,19.4,10,56-16.9,44.2
							c-26.8-11.8-44.3-13.3-27.5-43.4s26.8-33.8,20.4-5.6c-6.4,28.2-8.7,28.2-10.5,19.5"/>
						<path class="st16" d="M858,562.1c3.5-21.1-4.7-64.8-9.4-29.7c-4.6,35.2-14.5,109,7.1,77.1s33.2-60.2,19.7-75.8
							c-13.4-15.6-36.8-62.6-47.3-32.6c-10.5,30,15.3,91-10.4,105.5c-25.7,14.5-32.1-22.3-18.1-36.5c14-14.3,14.6,19.1,20.4,8.4
							c5.8-10.6,8.1-31.7-4.7-47.3c-12.9-15.6-31.5-15.3-24.5,10.9s25.1,45.2-3.4,58c-28.6,12.8-33.8-8.2-25.7-45.2
							c8.1-37-8.9-120.9-17-57.6s-15,117.8-1.1,80.7s16.2-48.9,9.8-50.8c-6.4-1.9-4.1-19.5,3-10.8c7,8.7,34,124,0.1,73.7
							c-33.9-50.3-71.3-118.1-56.6-46.4s33.3,59.1,25.1,27.7c-8.2-31.5-18.1-36.5-16.9-22.5c1.2,14,33.9,76.6-11,45.8
							c-18.2-12.5-33-25-42.6-36.2c-14.2-16.5-17-30.3-2.4-36.8c24.5-10.9,33.5,1.9,23.2,18.4s-20.9-23.7-35.4-28.7
							c-14.6-5-38.9-52.8-29,22.9s18.1,114.2,19.8,61.5c1.7-52.7,0.5-79-5.3-59.6c-5.8,19.4,10,56-16.9,44.2
							c-26.8-11.8-44.3-13.3-27.5-43.4s26.8-33.8,20.4-5.6c-6.4,28.2-8.7,28.2-10.5,19.5"/>
					</g>
				</g>
			</g>
		</g>
	</g>
	<g>
		<g>
			<defs>
				<path id="SVGID_17_" d="M498,366c0,0,299.2,57.2,342.1,231.1c0,0-32.1,83.9-532.1,98.9l-6,92l747-89l-45-282L498,366z"/>
			</defs>
			<clipPath id="SVGID_18_">
				<use xlink:href="#SVGID_17_"  style="overflow:visible;"/>
			</clipPath>
		</g>
	</g>
</g>
<g id="SOGAN">
	<ellipse class="st18" cx="576.5" cy="573" rx="244.5" ry="77"/>
	<ellipse class="st19" cx="577.5" cy="563.5" rx="244.5" ry="70.5"/>
	<ellipse class="st20" cx="573.5" cy="563" rx="218.5" ry="55"/>
	<ellipse class="st21" cx="573.5" cy="563" rx="212.5" ry="51"/>
	<ellipse class="st20" cx="571.5" cy="563" rx="187.5" ry="42"/>
	<ellipse class="st22" cx="571.5" cy="563" rx="182.4" ry="38.9"/>
	<ellipse class="st20" cx="571.5" cy="562" rx="155.5" ry="27"/>
	<ellipse class="st23" cx="571.5" cy="562" rx="151.2" ry="25"/>
	<ellipse class="st20" cx="571.5" cy="563" rx="111.5" ry="18"/>
	<ellipse class="st24" cx="571.5" cy="563" rx="108.4" ry="16.7"/>
	<ellipse class="st20" cx="571.5" cy="562" rx="72.5" ry="11"/>
	<ellipse class="st25" cx="571.5" cy="562" rx="70.5" ry="10.2"/>
	<g class="st12">
		<defs>
			<path id="SVGID_19_" class="st12" d="M595,455c0,0,380.2,127.2-150.4,203.6L685,674l157.1-75.4L839,521L595,455z"/>
		</defs>
		<clipPath id="SVGID_20_">
			<use xlink:href="#SVGID_19_"  style="overflow:visible;"/>
		</clipPath>
		<g id="SOGAN_1_" class="st26">
			<ellipse cx="576.5" cy="573" rx="244.5" ry="77"/>
			<ellipse cx="577.5" cy="563.5" rx="244.5" ry="70.5"/>
			<ellipse cx="573.5" cy="563" rx="218.5" ry="55"/>
			<ellipse cx="573.5" cy="563" rx="212.5" ry="51"/>
			<ellipse cx="571.5" cy="563" rx="187.5" ry="42"/>
			<ellipse cx="571.5" cy="563" rx="182.4" ry="38.9"/>
			<ellipse cx="571.5" cy="562" rx="155.5" ry="27"/>
			<ellipse cx="571.5" cy="562" rx="151.2" ry="25"/>
			<ellipse cx="571.5" cy="563" rx="111.5" ry="18"/>
			<ellipse cx="571.5" cy="563" rx="108.4" ry="16.7"/>
			<ellipse cx="571.5" cy="562" rx="72.5" ry="11"/>
			<ellipse cx="571.5" cy="562" rx="70.5" ry="10.2"/>
		</g>
	</g>
</g>
<g id="TOPBUN">
	<path class="st27" d="M253,327c0,0,106-69,544-33c0,0,211,16,179,176S654,618,614,618s-369,19-429-120C185,498,151,375,253,327z"/>
	<g>
		<defs>
			<path id="SVGID_21_" d="M652,247c0,0,639,297-336,384l264,94l436-9l12-493L652,247z"/>
		</defs>
		<clipPath id="SVGID_22_">
			<use xlink:href="#SVGID_21_"  style="overflow:visible;"/>
		</clipPath>
		<path class="st28" d="M253,327c0,0,106-69,544-33c0,0,211,16,179,176S654,618,614,618s-369,19-429-120C185,498,151,375,253,327z"
			/>
	</g>
	<g>
		<circle class="st29" cx="441" cy="421" r="49"/>
		<circle class="st30" cx="454" cy="403" r="22"/>
		<circle class="st30" cx="417.5" cy="443.5" r="11.5"/>
	</g>
	<g>
		<g>
			<path class="st29" d="M518,486c1.7,13.6,9.5,24.7,21,32c12.3,7.9,27.5,10.1,41.8,10.7c14.6,0.6,30.2-0.1,43.3-7.5
				c11.7-6.6,20.2-18.4,20.7-32.1c0.3-7.7-11.7-7.7-12,0c-1,25.4-33,28.4-52,27.6c-19.4-0.9-47.9-7.1-50.8-30.8
				C529.1,478.4,517.1,478.3,518,486L518,486z"/>
		</g>
	</g>
	<g>
		<ellipse transform="matrix(0.3111 -0.9504 0.9504 0.3111 91.5206 978.251)" class="st29" cx="720.5" cy="426" rx="49" ry="39.5"/>
		
			<ellipse transform="matrix(0.3111 -0.9504 0.9504 0.3111 115.4002 983.4977)" class="st30" cx="736.1" cy="412.2" rx="22" ry="17.7"/>
		
			<ellipse transform="matrix(0.3111 -0.9504 0.9504 0.3111 59.5721 965.1613)" class="st30" cx="695.5" cy="441.5" rx="11.5" ry="9.3"/>
	</g>
	<ellipse class="st31" cx="439.5" cy="511.5" rx="45.5" ry="27.5"/>
	<ellipse class="st31" cx="717.5" cy="512.5" rx="45.5" ry="27.5"/>
</g>
</svg>
